<svg width="118" height="40" viewBox="0 0 118 40" fill="none" xmlns="http://www.w3.org/2000/svg">
<path d="M49.4352 24.6736C51.837 23.6413 53.1279 21.5747 53.1279 18.451C53.1279 15.0438 51.3198 11.8952 46.0032 11.8952H37.9746V30.0936H41.6652V25.4225H45.0475C45.2792 25.4225 45.5378 25.4225 45.7447 25.3956L49.2553 30.0936H53.6699L49.4352 24.6736ZM44.9172 22.3753H41.6652V15.0955H45.4075C48.2747 15.0955 49.2553 16.8518 49.2553 18.7364C49.2553 20.8796 47.8609 22.3753 44.9172 22.3753Z" fill="white"/>
<path d="M61.6449 15.8195C57.4123 15.8195 53.9783 19.0467 53.9783 23.0724C53.9783 27.0981 57.4123 30.3005 61.6449 30.3005C65.8775 30.3005 69.3136 27.0733 69.3136 23.0724C69.3136 19.0716 65.8795 15.8195 61.6449 15.8195ZM61.6449 27.0733C59.3735 27.0733 57.5158 25.2673 57.5158 23.0724C57.5158 20.8775 59.3735 19.0467 61.6449 19.0467C63.9163 19.0467 65.7761 20.8527 65.7761 23.0724C65.7761 25.2921 63.9432 27.0733 61.6449 27.0733Z" fill="white"/>
<path d="M78.6577 15.8196C77.16 15.8196 75.7657 16.2312 74.5782 16.8767V10.6313H70.989V30.0936L74.5782 29.2165C75.7388 29.9136 77.1848 30.3274 78.6577 30.3274C82.58 30.3274 85.7554 27.3836 85.7554 23.0724C85.7554 18.7613 82.58 15.8196 78.6577 15.8196ZM78.0123 27.0733C76.6697 27.0733 75.4553 26.6099 74.5782 25.8611V20.2321C75.4553 19.5101 76.6428 19.0467 78.0123 19.0467C80.4389 19.0467 82.22 20.7762 82.22 23.0724C82.22 25.3687 80.4389 27.0733 78.0123 27.0733Z" fill="white"/>
<path d="M95.1268 15.8196C93.6291 15.8196 92.2348 16.2312 91.0473 16.8767V10.6313H87.4602V30.0936L91.0473 29.2165C92.2099 29.9136 93.6539 30.3274 95.1268 30.3274C99.0491 30.3274 102.225 27.3836 102.225 23.0724C102.225 18.7613 99.0491 15.8196 95.1268 15.8196ZM94.4814 27.0733C93.1388 27.0733 91.9245 26.6099 91.0473 25.8611V20.2321C91.9245 19.5101 93.1119 19.0467 94.4814 19.0467C96.908 19.0467 98.6891 20.7762 98.6891 23.0724C98.6891 25.3687 96.908 27.0733 94.4814 27.0733Z" fill="white"/>
<path d="M113.584 16.0761V25.9645C112.756 26.6616 111.699 27.0733 110.408 27.0733C108.42 27.0733 107.361 26.0162 107.361 23.8482V16.0761H103.774V23.8482C103.774 28.3911 105.659 30.3005 109.763 30.3005C111.209 30.3005 112.525 29.8867 113.584 29.1648L117.171 30.0936V16.0761H113.584Z" fill="white"/>
<path d="M20.8145 14.3632C20.3759 13.8584 19.9684 13.3909 19.6436 12.9296C19.3188 12.4683 19.0789 12.0173 18.9775 11.5477C18.7541 10.5196 18.9051 9.54106 19.3995 8.79632C19.9312 7.9978 20.8538 7.4558 22.0681 7.23031C22.4943 7.14964 22.8563 6.87036 23.0384 6.47731C23.2225 6.08218 23.2059 5.625 22.9928 5.2485C21.4248 2.47023 18.6961 0.742859 15.8724 0.742859C11.0874 0.742859 7.61409 4.96922 7.61409 10.7906V16.9801C6.45976 16.043 5.5578 14.8742 5.00339 13.5564C4.81307 13.1054 4.39519 12.7931 3.90905 12.7393C3.42083 12.6855 2.94503 12.8986 2.65955 13.2978C1.03148 15.5817 0.170898 18.2772 0.170898 21.0886C0.170898 22.0133 0.266059 22.938 0.452242 23.8379C1.23835 27.6112 3.59874 30.7039 6.71628 32.483C5.8888 33.6208 4.51518 34.4938 3.30498 34.9199C2.83539 35.0875 2.49612 35.4992 2.42372 35.9915C2.34924 36.4839 2.55405 36.9762 2.95744 37.272C4.7386 38.5836 6.85695 39.2745 9.07874 39.2745C13.0775 39.2745 16.7598 36.9348 18.4541 33.3125C18.5327 33.145 18.6072 32.9733 18.6796 32.7974C22.244 30.7039 24.4389 26.8892 24.4389 22.7311C24.4389 18.573 22.4281 16.2209 20.8145 14.3632ZM16.4578 30.8301C15.5931 31.0866 14.4201 31.3431 13.5906 31.4031C12.4052 31.4921 11.2426 31.3597 10.1483 31.0349C10.2579 30.3832 10.3034 29.742 10.3034 29.2558V21.4175C11.4267 21.8147 12.0163 22.0857 12.459 22.2905L12.5314 22.3236C15.1938 23.5503 16.6026 25.8114 16.6026 28.8607C16.6026 29.5992 16.5488 30.2984 16.4578 30.8301ZM3.09605 23.2876C2.9471 22.5698 2.87263 21.8292 2.87263 21.0886C2.87056 19.597 3.17466 18.1469 3.75803 16.8063C4.75515 18.1841 6.07291 19.3571 7.61409 20.2404V29.2558C7.61409 29.4482 7.60375 29.6509 7.58513 29.8578C5.35507 28.418 3.67942 26.0886 3.09605 23.2876ZM9.07874 36.5852C8.24091 36.5852 7.42584 36.4528 6.65215 36.1963C7.63271 35.5198 8.56156 34.6406 9.21734 33.5732C10.3841 33.9373 11.615 34.1317 12.8748 34.1317C13.1789 34.1317 13.4851 34.1193 13.7912 34.0966C14.1181 34.0717 14.476 34.0262 14.8442 33.9642C13.4106 35.6005 11.3109 36.5852 9.07874 36.5852ZM19.3023 28.8959V28.8607C19.3023 24.7998 17.246 21.523 13.6609 19.8722L13.5885 19.8391C13.0775 19.6032 12.3059 19.2474 10.804 18.7323C10.6344 18.6744 10.4668 18.6123 10.3034 18.5461V10.7906C10.3034 6.45869 12.5935 3.43217 15.8724 3.43217C17.2377 3.43217 18.5906 4.08382 19.6436 5.19885C18.6051 5.68913 17.7632 6.40076 17.1612 7.30686C16.2592 8.66186 15.9717 10.3706 16.3482 12.1166C16.6978 13.7281 17.7569 14.9487 18.783 16.1278C20.2415 17.8055 21.7495 19.5391 21.7495 22.7311C21.7495 25.0646 20.8517 27.2554 19.3023 28.8959Z" fill="white"/>
</svg>
