<?xml version="1.0" encoding="UTF-8"?>
<svg version="1.1" viewBox="0 0 2048 623" width="407" height="124" xmlns="http://www.w3.org/2000/svg">
<path transform="translate(0)" d="m0 0h2048v623h-2048z" fill="#FCFCFD"/>
<path transform="translate(0)" d="m0 0h279l30 10 16 8 12 7 10 8 11 10 11 14 9 14 8 16 8 24 3 14 1 10-3 7-7 7-6 1-11-6-10-6-14-4h-8l-11 3-9 5-8 7-7 13-1 4v18l4 11 7 11 13 15 11 12 7 8 9 10 13 18 8 15 8 20 6 23 3 19v32l-4 23-5 17-6 16-11 21-11 16-9 11-11 12-14 11-12 9-15 10-6 10-10 16-10 13-9 10-9 9-14 11-14 9-21 10-18 6-19 5h-164z" fill="#1EA0FF"/>
<path transform="translate(623,176)" d="m0 0h148l23 3 20 6 19 10 10 8 7 6 10 14 7 14 5 15 3 15 1 9v22l-5 27-6 16-8 14-11 12-10 9-11 7-9 5 2 4 10 13 11 14 10 13 11 14 13 16 10 13v3h-70l-5-4-7-9-14-19-10-13-24-32h-62l-6 1-1 75-1 1h-59l-1-1z" fill="#13254C"/>
<path transform="translate(1174,155)" d="m0 0h59l1 102 6-2 18-8 16-4 16-2h23l19 3 19 7 15 8 11 8 12 11 9 11 9 16 7 17 4 17 2 17v13l-4 25-5 15-8 16-9 13-12 13-14 11-19 10-18 6-15 3-8 1h-15l-21-3-20-6-20-9-50 12-9 2v-322z" fill="#13254C"/>
<path transform="translate(1448,155)" d="m0 0h58l1 1v102l26-11 16-4 15-2h21l21 3 19 7 17 9 14 11 9 9 11 15 8 16 6 18 3 15 1 8v21l-3 18-5 16-6 14-10 15-9 10-10 10-14 9-16 8-20 6-21 3h-12l-21-3-20-6-19-9-14 3-44 11h-2z" fill="#13254C"/>
<path transform="translate(247,31)" d="m0 0h15l20 3 21 7 16 9 10 8 10 9 12 16 8 15v5h-21l-14 3-15 6-11 7-7 6-9 13-6 13-3 11-1 6v14l4 16 8 16 10 14 12 14 9 10 7 8 9 10 10 14 9 17 7 21 4 21 1 8v22l-3 19-6 20-7 16-8 15-12 16-12 13-7 6h-2v-29l-4-25-6-20-8-18-8-14-10-14-13-15-11-10-14-10-16-9-14-6-51-17-4-3v-163l4-18 7-16 6-11 11-14 7-7 15-11 15-8 21-7z" fill="#FDFDFD"/>
<path transform="translate(1009,241)" d="m0 0h16l18 2 15 4 15 6 17 9 12 9 10 9 9 10 9 14 9 19 4 13 3 22-1 18-4 18-5 13-9 17-11 14-12 12-12 9-10 6-19 8-21 6-14 2h-22l-22-4-18-6-16-8-11-7-14-12-11-12-9-14-7-14-5-15-3-15v-27l4-18 5-14 8-15 9-12 11-12 12-10 14-9 15-7 14-5 17-3z" fill="#13254C"/>
<path transform="translate(1731,245)" d="m0 0h40l8 1 1 134 3 17 4 10 8 10 10 6 12 3 9 1h15l14-3 15-6 11-7 1-1 1-164 11-1h48l1 1v231l-2 1-52-14h-8l-15 8-15 5-16 3-17 2-17-1-22-4-15-6-12-7-10-9-7-10-7-14-5-17-3-18-1-15v-100l1-35z" fill="#13254C"/>
<path transform="translate(0)" d="m0 0h230l-3 2-18 6-20 9-16 10-11 9-12 12-10 13-8 13-8 18-5 17-2 11-1 11-1 136-5-3-8-7-9-11-10-13-9-15-9-17-5-6-7-1-9 4-9 13-9 15-11 23-7 22-7 25h-1z" fill="#FDFDFD"/>
<path transform="translate(146,321)" d="m0 0 9 3 43 15 19 10 13 10 14 14 11 15 9 17 6 17 4 17 1 8v25l-4 21-4 6-6 3-19 4-22 2h-17l-17-2-22-5-18-5-3-2 2-20z" fill="#FDFDFD"/>
<path transform="translate(1556,295)" d="m0 0h16l17 3 12 5 10 7 10 10 8 13 5 16 1 8v9l-2 13-4 11-7 12-7 8-10 7-12 6-18 4-7 1h-11l-20-4-13-5-12-7-4-4-1-6v-85l3-5 11-7 11-5 16-4z" fill="#FDFDFD"/>
<path transform="translate(1282,295)" d="m0 0h17l16 3 16 8 9 7 7 7 8 14 4 12 1 5v21l-4 15-6 12-12 13-11 7-14 6-12 3h-19l-20-4-15-6-10-7-4-4v-89l2-5 10-7 12-6 16-4z" fill="#FDFDFD"/>
<path transform="translate(1011,295)" d="m0 0h12l17 3 10 4 13 9 10 10 7 11 5 15 1 6v18l-3 12-7 14-7 9-9 8-14 8-12 4-13 2-15-1-13-3-12-6-9-7-10-10-8-14-5-16v-20l3-12 6-12 8-10 10-9 14-8 13-4z" fill="#FDFDFD"/>
<path transform="translate(0,355)" d="m0 0 2 4 8 28 7 20 10 21 13 21 11 14 12 13 8 8 14 11 14 10 6 3-1 7-8 13-7 9-9 10-10 8-23 14-6 7-1 6 4 7 11 9 17 9 24 9 23 6v1h-119z" fill="#FDFDFD"/>
<path transform="translate(712,229)" d="m0 0h27l21 1 14 3 16 8 10 10 6 10 4 14 2 17-2 14-5 13-7 10-7 7-15 8-18 5-8 1h-63l-2-1-1-9v-96l1-14z" fill="#FDFDFD"/>
<path transform="translate(52,242)" d="m0 0 5 5 12 16 12 14 12 11 13 11 8 6 1 2v171l-4-1-13-9-13-11-10-10-10-13-12-19-10-21-6-18-5-24-2-21v-12l2-19 4-19 7-21 7-16z" fill="#FDFDFD"/>
<path transform="translate(134,524)" d="m0 0 22 7 24 5 17 2h33l11-2h6l1 3-7 8-13 13-14 10-14 8-14 6-17 5-19 3h-15l-21-3-24-6-1-4 10-9 8-7 12-15 7-11z" fill="#FDFDFD"/>
<path transform="translate(2e3 248)" d="m0 0h15l9 3 9 6 7 9 4 8 1 1v20l-7 10-7 8-8 5-8 3h-16l-14-7-7-7-6-12-1-4v-12l3-10 6-9 9-8z" fill="#FCFCFD"/>
<path transform="translate(1448,155)" d="m0 0h58l1 1v18l-1 61-2-4-1-22v-36l-4-6-8-4-12-1-13 2-6 3-5 7-1 5 1 6v14l1 36v9l-1 1 1 2-1 14 1-7 1-17h1l1 15v18h-2v28l-2 21v38l-1 5v40l-1 22-1 9 1 31 2 6v3l11-2 7-2h5l-1 2-27 7h-2z" fill="#0C1A46"/>
<path transform="translate(2e3 248)" d="m0 0h15l9 3 9 6 7 9 4 8 1 1v20l-7 10-7 8-8 5-8 3h-16l-14-7-7-7-6-12-1-4v-12l3-10 6-9 9-8zm0 7-10 5-8 9-4 10v9l3 10 6 9 11 7 4 1h11l14-7 7-8 3-7 1-13-4-11-5-7-10-6-4-1z" fill="#0C1E4B"/>
<path transform="translate(641,176)" d="m0 0h130l23 3 1 2h-12v1l-31 3h-34l-39-1h-12l-7-1v-1l15-1 27-1h-61l-3 1v-2l-7 1v1l5 1-3 2-6-1-3-2v-4z" fill="#0B1A46"/>
<path transform="translate(1731,245)" d="m0 0h40l7 1v113h-1l-1-17-1-35v-50l-5-2-8-4-19-1h-10v2l-8 4-2 6v13l1 13v55l-1 31h-2l-1-48v-80z" fill="#0C1A47"/>
<path transform="translate(1894,245)" d="m0 0h48l1 1v231l-2 1-8-3 4-1h2l-1-10 1-145v-57l-2-6-5-7h-28l-17 1-3 1-1-5z" fill="#0C1D4B"/>
<path transform="translate(2007,266)" d="m0 0 10 1 6 4 3 4 1 8-3 5 1 11-1 2-4-2-6-5-6-2-3 9h-5l-2-3v-26l2-4z" fill="#142952"/>
<path transform="translate(773,344)" d="m0 0 4 1-10 5-9 4-7 3-9 2-13 1-15-1-5-3-12-1-7-1v2l-4-1-1-5 65-1 16-3z" fill="#0B1A46"/>
<path transform="translate(1174,155)" d="m0 0h48l10 1v89h-1l-1-22v-50l-2-6-8-4-11-2h-20l-4 2h-9l-1 28h-1z" fill="#0B1946"/>
<path transform="translate(682,421)" d="m0 0 2 1v55l-1 1h-59v-35l2 4 1 17 2 8 2 1v2h50v-41z" fill="#0D1C47"/>
<path transform="translate(1975,274)" d="m0 0 2 2 5-1v13l3 10 5 7v2l4 2 7 4v2h-4l6 3-1 2-5-1-10-6-8-9-4-9-1-4v-12z" fill="#13254D"/>
<path transform="translate(683,244)" d="m0 0h1v104h-1l-2-12-1-12v-38l1-31 1-9z" fill="#0B1946"/>
<path transform="translate(1721,275)" d="m0 0h2l1 13v55l-1 31h-2l-1-48v-47z" fill="#0B1946"/>
<path transform="translate(2007,272)" d="m0 0h8l4 4 1 7-2 3-3 1h-7l-3-2v-7z" fill="#FDFDFD"/>
<path transform="translate(2e3 251)" d="m0 0 11 2 1 2-13 1-10 5-7 8-3 4-1-5 3-7 7-6z" fill="#153260"/>
<path transform="translate(624,443)" d="m0 0 2 4 1 17 2 8 2 1v2l47 1v1h-54z" fill="#0B1946"/>
<path transform="translate(872,463)" d="m0 0 5 4 6 8v2h-22v-1h8v-8z" fill="#0C1A46"/>
<path transform="translate(1544,244)" d="m0 0h9l-4 2-9 4h-5l-4 3-5 1 1-2-2 2-4 2-5 1-4 1v-2l21-9z" fill="#0E1D48"/>
<path transform="translate(1884,286)" d="m0 0h1l1 15 2 25v37h-1l-1-31-1-13-1-2z" fill="#0B1946"/>
<path transform="translate(1992,252)" d="m0 0 2 1-9 9-2 9v4l-7 2v-6l6-10 7-7z" fill="#0B1A46"/>
<path transform="translate(1602,418)" d="m0 0 3 1-11 6-15 5h-10l-4-2 25-5z" fill="#0D1D49"/>
<path transform="translate(1655,273)" d="m0 0 4 1 10 11 8 12-1 2-9-13-3-3h-3z" fill="#0D1C47"/>
<path transform="translate(1870,418)" d="m0 0 2 1-14 7-8 3-14 1 2-2 17-4z" fill="#0D1C47"/>
<path transform="translate(1612,310)" d="m0 0 6 2 6 6 2 8h-2l-7-9-5-5z" fill="#0C1B47"/>
<path transform="translate(803,465)" d="m0 0 4 1 7 8 5 2v1h-8l-8-10z" fill="#0C1A46"/>
<path transform="translate(1044,422)" d="m0 0 3 1-10 4-9 3-8-1 1-2 17-3z" fill="#0D1E4A"/>
<path transform="translate(1975,286)" d="m0 0 2 4 2 9 7 10 4 5-4-2-7-8-4-9z" fill="#0E1D48"/>
<path transform="translate(1544,244)" d="m0 0h9l-4 2-9 4-6-1 2-1v-2z" fill="#0C1B47"/>
<path transform="translate(995,425)" d="m0 0 11 1 10 1 2 2-9 1-14-4z" fill="#0D1C47"/>
<path transform="translate(1316,423)" d="m0 0h2v2l-10 4h-10l3-2z" fill="#0D1C47"/>
<path transform="translate(1107,278)" d="m0 0 4 1 7 8-1 2-3-3-3-1v-3l-3 1z" fill="#0D1C47"/>
<path transform="translate(2016,293)" d="m0 0 5 1v2l3-1 1 4-1 2-4-2-4-4z" fill="#0F214D"/>
<path transform="translate(1992,252)" d="m0 0 2 1-5 5-7 6v-3l7-7z" fill="#0D1B47"/>
<path transform="translate(1269,244)" d="m0 0h9l-4 2-10 3-3-1 4-3z" fill="#0D1B47"/>
<path transform="translate(2038,296)" d="m0 0 2 3-6 9-2-1 2-5z" fill="#11214A"/>
</svg>
