<?xml version="1.0" encoding="UTF-8"?>
<svg version="1.1" viewBox="0 0 2048 2048" width="512" height="512" xmlns="http://www.w3.org/2000/svg">
<path transform="translate(0)" d="m0 0h2048v2048h-2048z" fill="#FEFEFE"/>
<path transform="translate(1155,204)" d="m0 0h32l27 3 30 5 25 6 22 7 21 8 24 11 17 9 23 14 16 12 9 7 10 8 10 9 15 14 14 15 9 11 10 13 11 16 12 19 12 22 10 23 9 25 8 29 5 26 3 21 1 12v18l-4 11-7 9-8 6-12 5h-12l-12-5-13-10-8-6-13-8-16-7-17-4-7-1h-21l-20 4-15 6-13 7-13 10-11 11-9 13-8 16-5 16-3 19v18l4 18 5 14 8 16 14 21 11 14 9 10 7 8 9 10 7 8 12 13 11 12 10 11 7 8 12 14 14 17 13 17 11 15 15 27 16 32 13 34 7 21 8 31 6 31 4 31 2 31v36l-3 34-5 33-6 27-6 23-11 32-10 24-14 29-10 18-11 18-13 19-9 12-10 13-9 10-9 11-16 17-13 12-11 10-11 9-18 14-16 11-24 15-18 10-6 4-20 40-12 20-10 15-10 14-11 14-13 15-9 10-23 23-11 9-13 11-18 13-21 14-23 13-22 11-29 12-30 10-32 8-35 6-26 3-25 1-33-2-37-5-25-5-24-6-30-10-15-6-20-9-20-10-22-13-12-8-11-8-9-9-6-12-1-5 1-13 3-8 6-9 11-8 23-12 19-11 12-8 13-10 10-9 8-7 13-13 18-22 10-14 6-9 6-11 11-22v-5l-14-8-15-10-17-12-17-13-14-12-10-9-8-7-10-9-14-14-7-8-11-12-20-25-14-19-8-12-11-17-14-24-15-29-9-19-9-23-9-25-6-19-8-31-7-36-4-31-2-28v-53l2-32 5-37 6-31 8-32 12-36 8-21 11-25 9-19 7-12 6-11 10-17 18-27 7-9 6-7 10-7 12-3 11 1 10 4 10 9 6 9 17 35 10 19 13 21 12 17 9 12 14 17 12 14 21 21 8 7 6 5 2 1-1-20v-326l3-32 5-30 6-24 11-33 11-26 11-20 6-11 13-20 14-19 12-14 12-13 4-5 8-7 9-9 11-9 10-8 17-12 17-11 22-12 23-11 21-8 25-8 26-6 44-7z" fill="#2AA1FE"/>
<path transform="translate(1155,287)" d="m0 0h33l20 2 24 4 24 6 20 7 24 11 17 9 11 7 17 12 17 14 15 14 9 9 9 11 12 15 14 22 12 23 10 22v4l-11-1-16-2h-35l-18 3-19 5-20 8-16 8-13 8-12 9-14 12-7 7-11 14-9 13-8 14-9 20-7 22-4 21-2 25v12l2 18 6 25 7 19 8 16 10 18 12 17 9 12 14 17 12 14 11 12 7 8 14 15 12 13 7 8 24 28 13 17 12 18 12 22 12 25 11 30 8 27 7 33 3 23 2 23v45l-3 30-5 29-6 24-12 36-9 21-9 19-13 23-12 19-14 19-14 17-14 15-20 20-8 7-6 5h-2l1-24v-55l-4-37-7-36-8-29-9-26-11-26-12-24-13-22-8-12-12-17-11-14-11-13-12-13-10-11-8-7-13-12-14-11-13-10-16-11-21-13-26-14-27-12-28-10-60-18-31-11-24-10-5-3-1-121v-286l3-25 6-29 6-20 8-21 8-16 9-17 16-24 11-14 11-12 19-19 11-9 13-10 18-12 18-10 16-8 24-9 24-7 27-5z" fill="#FEFEFE"/>
<path transform="translate(887,1052)" d="m0 0 6 1 34 12 28 9 29 9 18 6 24 10 22 11 19 12 17 12 11 9 21 18v2l4 2 14 15 18 22 12 17 13 21 11 21 9 21 8 22 7 25 5 23 4 33 1 18v24l-2 26-5 31-7 28-3 8-11 4-28 7-27 5-31 4-32 2h-28l-36-3-23-3-36-7-30-8-32-11-10-4-1-1 1-10 3-24 2-32v-333z" fill="#FEFEFE"/>
<path transform="translate(643,842)" d="m0 0 4 2 10 16 13 18 9 12 11 13 8 10 12 13 7 8 21 21 8 7 13 11 14 11 13 10 17 12 3 4-1 453-2 1-19-13-12-9-16-13-8-7-13-12-23-23-9-11-9-10-12-16-10-14-11-17-13-22-8-15-13-28-10-26-10-30-9-36-6-36-3-32-1-20v-23l2-32 5-37 6-29 8-30 8-24 11-27 14-29z" fill="#FEFEFE"/>
<path transform="translate(855,1583)" d="m0 0 5 1 41 14 25 7 26 6 41 7 29 3 17 1h51l39-3 19-3 7-1 1 3-9 11-12 14-15 16-7 7-8 7-10 9-16 12-10 7-19 12-22 12-17 8-23 9-19 6-25 6-24 4-26 3h-40l-39-5-24-5-25-7-29-11v-4l9-6 11-9 17-16 13-13 7-8 9-10 15-20 10-15 8-13 15-28z" fill="#FEFEFE"/>
</svg>
